<?xml version="1.0" ?><!DOCTYPE svg  PUBLIC '-//W3C//DTD SVG 1.1//EN'  'http://www.w3.org/Graphics/SVG/1.1/DTD/svg11.dtd'><svg height="6.82666in" style="shape-rendering:geometricPrecision; text-rendering:geometricPrecision; image-rendering:optimizeQuality; fill-rule:evenodd; clip-rule:evenodd" viewBox="0 0 6.82666 6.82666" width="6.82666in" xml:space="preserve" xmlns="http://www.w3.org/2000/svg" xmlns:xlink="http://www.w3.org/1999/xlink"><defs><style type="text/css">
   <![CDATA[
    .fil2 {fill:none}
    .fil0 {fill:black}
    .fil1 {fill:black;fill-rule:nonzero}
   ]]>
  </style></defs><g id="Layer_x0020_1"><path class="fil0" d="M3.47319 1.30104l1.2697 1.43757c0.0327638,0.0327598 0.0327638,0.0859213 0,0.118681 -0.0327598,0.0327638 -0.0859213,0.0327638 -0.118681,0l-1.21087 -1.37873 -1.21087 1.37873c-0.0327598,0.0327638 -0.0859213,0.0327638 -0.118681,0 -0.0327638,-0.0327598 -0.0327638,-0.0859213 -3.93701e-006,-0.118681l1.2702 -1.43808c0.032874,-0.032874 0.0865709,-0.0330118 0.119094,0.000401575l0.000106299 0.000106299z"/><path class="fil1" d="M3.41334 1.09386c0.0749843,0 0.14287,0.0303976 0.192012,0.0795394 0.0491417,0.0491417 0.0795394,0.117028 0.0795394,0.192012 0,0.0749764 -0.0303976,0.14287 -0.0795394,0.192012 -0.0491417,0.0491417 -0.117028,0.0795394 -0.192012,0.0795394 -0.0749843,0 -0.14287,-0.0303976 -0.192016,-0.0795394 -0.0491417,-0.0491417 -0.0795394,-0.117035 -0.0795394,-0.192012 0,-0.0749724 0.0303976,-0.14287 0.0795394,-0.192012 0.0491457,-0.0491417 0.117031,-0.0795394 0.192016,-0.0795394z"/><polygon class="fil0" points="5.5236,3.31696 1.30308,3.31696 1.75336,5.65278 5.07332,5.65278 "/><path class="fil0" d="M1.25302 3.23303l4.32134 0 0.14213 0c0.0705906,0 0.134803,-0.0289173 0.18137,-0.0754843 0.0465709,-0.0465709 0.0754843,-0.11078 0.0754843,-0.181382 0,-0.0705945 -0.0289094,-0.134807 -0.0754803,-0.181374 -0.0465709,-0.0465748 -0.110783,-0.0754803 -0.181374,-0.0754803l-4.60629 0c-0.0705906,0 -0.134803,0.0289055 -0.181374,0.0754803 -0.0465709,0.0465669 -0.0754803,0.11078 -0.0754803,0.181382 0,0.0705945 0.0289134,0.134803 0.0754843,0.181374 0.0465669,0.0465669 0.11078,0.0754843 0.18137,0.0754843l0.141484 0c0.000444882,-7.87402e-006 0.000889764,-7.87402e-006 0.00133858,0z"/></g><rect class="fil2" height="6.82666" width="6.82666"/></svg>