<?xml version="1.0" encoding="utf-8"?>
<!-- Generator: Adobe Illustrator 22.1.0, SVG Export Plug-In . SVG Version: 6.00 Build 0)  -->
<svg version="1.1" id="Слой_1" xmlns="http://www.w3.org/2000/svg" xmlns:xlink="http://www.w3.org/1999/xlink" x="0px" y="0px"
	 viewBox="0 0 512 625.5" style="enable-background:new 0 0 512 625.5;" xml:space="preserve">
<style type="text/css">
	.st0{font-family:'ElMessiri-Bold';}
	.st1{font-size:145.2904px;}
</style>
<path d="M264.5,426.7V307.2c0-9.4-7.6-17.1-17.1-17.1H93.9c-9.4,0-17.1,7.6-17.1,17.1v119.5c-4.7,0-8.5,3.8-8.5,8.5
	c0,4.7,3.8,8.5,8.5,8.5h187.7c4.7,0,8.5-3.8,8.5-8.5C273.1,430.5,269.2,426.7,264.5,426.7z M247.5,391.3l-2.7-2.5
	c-2.2-2.1-5.4-2.9-8.4-2c-2.9,0.9-5.2,3.3-5.9,6.3c-0.7,3,0.3,6.1,2.6,8.2l14.3,13.3v12.1H216l-65.1-60.5c-2.2-2.1-5.4-2.9-8.4-2
	c-2.9,0.9-5.2,3.3-5.9,6.3c-0.7,3,0.3,6.1,2.6,8.2l51.7,48H93.9v-90.9l21,20.2c2.2,2.2,5.4,3.1,8.4,2.2s5.3-3.2,6-6.2
	c0.7-3-0.3-6.2-2.6-8.3l-32.8-31.6v-4.9h40.5l73,70.2c2.2,2.2,5.4,3,8.4,2.2s5.3-3.2,6-6.2c0.7-3-0.3-6.2-2.5-8.3L159,307.2h88.4
	V391.3z"/>
<path d="M358.4,375.5h17.1c9.4,0,17.1-7.6,17.1-17.1v-17.1c0-9.4-7.6-17.1-17.1-17.1h-17.1c-9.4,0-17.1,7.6-17.1,17.1v17.1
	C341.3,367.8,349,375.5,358.4,375.5z M358.4,341.3h17.1l0,17.1h-17.1V341.3z"/>
<path d="M349.9,409.6h8.5c4.7,0,8.5-3.8,8.5-8.5c0-4.7-3.8-8.5-8.5-8.5h-8.5c-4.7,0-8.5,3.8-8.5,8.5
	C341.3,405.8,345.2,409.6,349.9,409.6z"/>
<path d="M494.9,460.8h-17.1V230.4c0-9.4-7.6-17.1-17.1-17.1h-48.9c24.1-21,30.3-56,15-84s-48.1-41.7-78.8-32.8l-24.7-57.7
	l-10.9-21.8h28.9c4.7,0,8.5-3.8,8.5-8.5c0-4.7-3.8-8.5-8.5-8.5h-28.9c-5.9,0-11.4,3.1-14.5,8.1c-3.1,5-3.4,11.3-0.8,16.6l4.7,9.4
	H201.5L193,17.1h28.9c4.7,0,8.5-3.8,8.5-8.5c0-4.7-3.8-8.5-8.5-8.5H193c-5.9,0-11.4,3.1-14.5,8.1s-3.4,11.3-0.7,16.6l8.8,17.5
	l-35.2,55.9c-30.8-11.3-65.3,1-82.1,29.2c-16.7,28.2-11,64.4,13.7,86H51.2c-9.4,0-17.1,7.6-17.1,17.1v230.4H17.1
	c-9.4,0-17.1,7.6-17.1,17.1v17.1c0,9.4,7.6,17.1,17.1,17.1h477.9c9.4,0,17.1-7.6,17.1-17.1v-17.1C512,468.4,504.4,460.8,494.9,460.8
	z M359.1,165.5c1.9,4.2,6.9,6.2,11.1,4.3c4.3-1.8,6.3-6.7,4.5-11.1l-19.9-46.4c25.9-6.3,52.3,8.3,60.7,33.6
	c8.4,25.3-3.9,52.8-28.4,63.3c-24.5,10.5-52.9,0.5-65.4-23s-4.9-52.7,17.5-67.1L359.1,165.5z M314.6,61.8l17.8,41.6
	c-18.9,11-31.4,30.5-33.5,52.3c-2.1,21.8,6.5,43.3,23,57.7H173c12.5-11,20.6-26.2,22.7-42.7h51.8l0.1,0c1,0,2-0.2,2.9-0.6
	c0.1,0,0.2,0,0.4-0.1c0.1-0.1,0.2-0.1,0.3-0.2c0.9-0.4,1.8-1,2.5-1.7c0.1-0.1,0.1-0.2,0.2-0.2c0.4-0.4,0.8-0.9,1.1-1.5L314.6,61.8z
	 M301,51.2L248.6,143l-39.4-91.8H301z M194.8,61l39.7,92.6l-38.9,0c-2.4-19.3-13-36.7-29.1-47.7L194.8,61z M157.5,120.3
	c11.1,7.9,18.7,19.8,20.9,33.2l-41.8,0L157.5,120.3z M76.8,162.1c0-16.1,7.5-31.2,20.3-40.9s29.4-12.8,44.9-8.3l-19.8,31.5
	c-3.4,5.2-3.6,11.9-0.6,17.4c3,5.5,8.7,8.9,14.9,8.9h41.9c-4.4,26.3-28.2,44.7-54.7,42.5C97.2,210.9,76.8,188.8,76.8,162.1z
	 M51.2,264.5h34.1c4.7,0,8.5-3.8,8.5-8.5s-3.8-8.5-8.5-8.5H51.2v-17.1h409.6v17.1H128c-4.7,0-8.5,3.8-8.5,8.5s3.8,8.5,8.5,8.5h332.8
	v196.3h-34.1V307.2c0-9.4-7.6-17.1-17.1-17.1h-85.3c-9.4,0-17.1,7.6-17.1,17.1v153.6h-256V264.5z M409.6,307.2v153.6h-85.3V307.2
	H409.6z M17.1,494.9v-17.1h477.9l0,17.1H17.1z"/>
<text transform="matrix(0.6646 0 0 1 1.1042 617.5665)" class="st0 st1">ВЕЛОСИТИ</text>
</svg>
