<?xml version="1.0" encoding="utf-8"?>
<!-- Generator: Adobe Illustrator 22.1.0, SVG Export Plug-In . SVG Version: 6.00 Build 0)  -->
<svg version="1.1" id="bike-7" xmlns="http://www.w3.org/2000/svg" xmlns:xlink="http://www.w3.org/1999/xlink" x="0px" y="0px"
	 viewBox="0 0 1010 575.1" style="enable-background:new 0 0 1010 575.1;" xml:space="preserve">
<style type="text/css">
	.st0{fill:#FEB901;}
</style>
<path id="bike-7-bike-7" class="st0" d="M480.4,398.4c-1.1-2.9-1-6,0.3-8.8c1.3-2.8,3.6-5,6.5-6.1c1.3-0.5,2.7-0.8,4.1-0.8l-0.1-0.3
	c-1.4,0-2.7,0.3-4,0.8c-1.9,0.7-3.6,2-5,3.7l-0.7,0.8c-0.4,0.6-0.7,1.2-1,1.7c-0.7,1.6-1.1,3.2-1.1,4.9c0,1.4,0.3,2.8,0.7,4.1
	l2.4,6.4l-279.1-22.5c-4-0.3-7.5-2.6-9.3-6.1c-1.9-3.5-1.8-7.7,0.2-11.2L357,81.8l10.8,27.7l-0.9,1.6
	c-29.3,51-123.6,215.2-143.4,249.7l250.3,20.2L348,58l4.2-1c5.4-1.3,10.3-2.8,14.9-4.2l3.3-1l8.9,23h298.4l9,23.1H388.4l106.4,273.3
	l202.1-247.4l9.6,24.8l-202,247.2l-2.4-5.9c-1.2-2.9-3.3-5.1-6.1-6.4c-0.4-0.2-0.8-0.3-1.3-0.5l-0.2,0.3c3.3,1.1,6.1,3.6,7.4,7
	l2.3,6.2l35.5-43.4l2.9,4c7.8,10.9,11.9,23.6,11.9,36.8c0,20.3-9.9,39.5-26.4,51.4l-4,2.9l-12.6-33.4l6.5-3.6l5.1,7
	c5.3-7,8.2-15.5,8.2-24.3c0-0.3,0-0.7,0-1l-25.3,8.3l28.5,75.7h15.9l0.2,23.2h-54.4l-0.2-23.2h13.7L480.4,398.4z M601.4,370.8
	c0,112.6,91.6,204.3,204.3,204.3c112.6,0,204.3-91.6,204.3-204.3c0-112.6-91.6-204.2-204.3-204.2c-20,0-39.9,2.9-59,8.7l-3.9,1.2
	l8.4,21.6l3.3-1c16.7-4.9,33.9-7.4,51.2-7.4c99.9,0,181.1,81.2,181.1,181.1c0,99.9-81.3,181.1-181.1,181.1s-181.1-81.3-181.1-181.1
	c0-69.5,38.9-131.8,101.4-162.6l3.1-1.5l-8.4-21.6l-3.7,1.8C646.8,220.8,601.4,293,601.4,370.8z M838.7,114.1c2.2-2.1,3.4-5,3.4-8.2
	c0-3.1-1.2-6-3.4-8.2l-8.4-8.4V57.3c0-18-5.6-35.3-16.3-49.8c-3.6-5-11.2-6.1-16.2-2.5c-2.3,1.7-3.8,4.1-4.4,6.9l-7.8,4.6
	C775,5.9,760.6,0,745.7,0c-12.8,0-24.9,4.1-35.1,12c-6.7,5.2-8,15-2.8,21.7c3,3.8,7.4,6,12.2,6c0,0,0,0,0,0c3.5,0,6.7-1.1,9.5-3.2
	c4.6-3.6,10.2-5.5,16.1-5.5c14.5,0,26.3,11.8,26.3,26.3c0,14.5-11.8,26.3-26.3,26.3c-8.5,0-15.5,6.9-15.5,15.5
	c0,8.5,6.9,15.5,15.5,15.5c31.6,0,57.3-25.7,57.3-57.3c0-4.8-0.6-9.5-1.7-14L805,41c1.5,5.3,2.2,10.8,2.2,16.3v36.9
	c0,3.1,1.2,6,3.4,8.2l11.8,11.8c2.2,2.2,5.1,3.4,8.2,3.4C833.6,117.5,836.5,116.3,838.7,114.1z M705.7,17.9l2.3-5.3h-37.2
	c-3.8,0-7.4,1.9-9.6,5.1c-2.1,3.1-2.6,7.2-1.2,10.7L795,375c1.7,4.4,6,7.4,10.8,7.4c1.4,0,2.8-0.3,4.2-0.8c4.5-1.7,7.4-6,7.4-10.8
	c0-1.5-0.3-2.9-0.8-4.2L687.8,35.8H708l-2.3-5.3c-0.9-2.1-1.4-4.2-1.4-6.3C704.4,22.2,704.8,20,705.7,17.9z M446.3,25
	c0-12.2-9.9-22-22-22H275.1c-4.6,0-8.5,1.2-11.6,3.5c-3.9,2.9-6.1,7.3-6.1,12.4c0,17.6,30.7,42.1,60.8,42.1c20.4,0,36.8-4.9,50-8.9
	c9.3-2.8,17.3-5.2,24.1-5.2h32C436.4,47,446.3,37.1,446.3,25z M0,370.8c0,112.6,91.6,204.3,204.3,204.3c85.1,0,161.7-53.3,191.4-133
	l53.4,8.6l2.9-6.7c-3.5-2.7-6.6-5.7-9.4-9l-0.9-1.1l-41.1-6.6c2.3-8.1,4.2-16.2,5.5-24.3l0.7-4l-23.2-1.9l-0.6,3.4
	c-1.3,7.6-3.1,15.4-5.5,23.1l-145.4-23.4l-1.3,1.1c-2.7,2.3-5.7,4.3-8.8,5.8l-10.6,5.2l160.9,25.9c-27.5,68.1-94.4,113.6-168,113.6
	c-99.9,0-181.2-81.3-181.2-181.1c0-99.9,81.3-181.1,181.2-181.1c26.7,0,52.5,5.7,76.6,17.1l3.1,1.5l11.6-20.1l-3.6-1.8
	c-27.5-13.1-57-19.8-87.6-19.8C91.6,166.5,0,258.2,0,370.8z M491.2,457.3c2,0,3.9-0.1,5.9-0.3l4.9-0.4l-8.4-22.4l-2.6,0
	c-4.5,0-8.9-0.8-13.1-2.3l9.8-13.4l-5-13.3l-13.1-1l-10.3,14.1c-3-3.9-5.2-8.4-6.6-13.1l-0.7-2.5l-23.8-1.9l0.9,4.8
	C434.5,435.5,460.7,457.3,491.2,457.3z M380.9,330.7l-140,0.2l-8.8,15.3l151.6-0.2c1.2,8.3,1.8,16.2,1.8,24l0,3.5l23.1,1.8v-4.1
	h-3.8l3.8-0.1c0-8.3-0.5-16.7-1.6-25.2l42.9-0.1c-8.3,7.1-14.6,16.2-18.3,26.5l-1.7,4.6l31,2.5l1.5-7.3l-4.2-1.4
	c1.7-2.5,3.8-4.8,6-6.8l1.9-1.7l-6.4-16.4h0l-6-15.3l-49.2,0.1c-10.4-51.7-41.3-98.4-85.1-128.4l-3.4-2.3l-11.6,20.1l2.8,2
	C344.9,248.1,370.9,286.5,380.9,330.7z M187.1,370.8c0-7.3,4.7-13.8,11.7-16.2l1.3-0.4l13.1-22.7l-5.7-0.8c-1.1-0.1-2.1-0.1-3.2-0.1
	c-22.2,0-40.3,18.1-40.3,40.3c0,22.2,18.1,40.3,40.3,40.3c14.3,0,27.7-7.7,34.9-20.2l3-5.1l-26.5-2.1l-1.1,0.9
	c-3,2.3-6.5,3.5-10.2,3.5C194.8,387.9,187.1,380.2,187.1,370.8z M502.7,361v-5.6c0.4,0.1,0.7,0.2,1.1,0.4l2.5,0.8l15.2-18.6l-4.5-2
	c-6.6-2.9-13.6-4.7-20.8-5.3v-0.2l-4,0l-12.9,0.1l15.6,40.1L502.7,361z"/>
</svg>
